<svg width="219" height="45" viewBox="0 0 219 45" fill="none" xmlns="http://www.w3.org/2000/svg">
<g filter="url(#filter0_i_105_23)">
<path d="M38.6295 14.2C37.8295 14.2 37.1895 13.96 36.7095 13.48C36.2295 13 35.9895 12.3467 35.9895 11.52C35.9895 10.7467 36.2295 10.12 36.7095 9.64C37.1895 9.16 37.8295 8.92 38.6295 8.92C39.4295 8.92 40.0562 9.16 40.5095 9.64C40.9895 10.0933 41.2295 10.72 41.2295 11.52C41.2295 13.3067 40.3629 14.2 38.6295 14.2ZM51.3895 31.16H54.9895V36H50.9095C48.9629 36 47.3495 35.48 46.0695 34.44C44.7895 35.48 43.1762 36 41.2295 36H23.9495C23.0429 36 22.2029 35.88 21.4295 35.64C20.9229 38.2 19.6295 40.2133 17.5495 41.68C15.6829 42.96 13.4162 43.6 10.7495 43.6C7.14953 43.6 4.36286 42.3333 2.38953 39.8C0.842865 37.8267 0.0695313 35.5067 0.0695313 32.84C0.0695313 30.7333 0.562865 28.8933 1.54953 27.32L6.34953 26.32C5.28286 28.1333 4.74953 30.04 4.74953 32.04C4.74953 34.0667 5.32286 35.7067 6.46953 36.96C7.56287 38.16 8.98953 38.76 10.7495 38.76C12.5895 38.76 14.0162 38.2933 15.0295 37.36C16.0695 36.4267 16.5895 35.12 16.5895 33.44V23L21.6295 20.36V28.28C21.6295 29.9867 22.3095 30.9333 23.6695 31.12C24.9229 27.2533 26.7895 24.0933 29.2695 21.64C31.9895 18.92 35.1095 17.56 38.6295 17.56C41.7762 17.56 44.2962 18.6533 46.1895 20.84C47.7895 22.68 48.5895 24.96 48.5895 27.68V28.52C48.5895 30.28 49.5229 31.16 51.3895 31.16ZM41.0295 31.16C41.9895 31.16 42.6429 30.96 42.9895 30.56C43.3629 30.1333 43.5495 29.36 43.5495 28.24V27.68C43.5495 26.08 43.0962 24.7733 42.1895 23.76C41.2829 22.7467 40.1095 22.24 38.6695 22.24C36.5895 22.24 34.6429 23.04 32.8295 24.64C31.0429 26.24 29.6295 28.4133 28.5895 31.16H41.0295ZM66.833 31.16H70.433V36H66.353C64.4063 36 62.793 35.48 61.513 34.44C60.233 35.48 58.6196 36 56.673 36H52.593V31.16H56.193C57.2063 31.16 57.9263 30.9467 58.353 30.52C58.7796 30.0667 58.993 29.32 58.993 28.28V20.88L64.033 18.24V28.28C64.033 29.32 64.2463 30.0667 64.673 30.52C65.0996 30.9467 65.8196 31.16 66.833 31.16ZM56.473 39.64C57.273 39.64 57.8996 39.8667 58.353 40.32C58.833 40.8 59.073 41.44 59.073 42.24C59.073 44.0267 58.2063 44.92 56.473 44.92C55.673 44.92 55.033 44.68 54.553 44.2C54.073 43.72 53.833 43.0667 53.833 42.24C53.833 40.5067 54.713 39.64 56.473 39.64ZM62.633 39.64C63.433 39.64 64.0596 39.8667 64.513 40.32C64.993 40.8 65.233 41.44 65.233 42.24C65.233 44.0267 64.3663 44.92 62.633 44.92C61.833 44.92 61.193 44.68 60.713 44.2C60.233 43.72 59.993 43.0667 59.993 42.24C59.993 40.5067 60.873 39.64 62.633 39.64ZM68.0227 36V31.16H71.6227C72.636 31.16 73.356 30.9467 73.7827 30.52C74.2093 30.0667 74.4227 29.32 74.4227 28.28V20.88L79.4627 18.24V28.52C79.4627 30.9467 78.716 32.84 77.2227 34.2C75.916 35.4 74.2093 36 72.1027 36H68.0227ZM76.5027 44.92C75.7027 44.92 75.0627 44.68 74.5827 44.2C74.1027 43.72 73.8627 43.0667 73.8627 42.24C73.8627 41.4667 74.1027 40.84 74.5827 40.36C75.0627 39.88 75.7027 39.64 76.5027 39.64C77.3027 39.64 77.9293 39.8667 78.3827 40.32C78.8627 40.8 79.1027 41.44 79.1027 42.24C79.1027 44.0267 78.236 44.92 76.5027 44.92ZM85.1308 7.96L86.4108 5.64H87.6108C87.3174 5.10666 87.1708 4.56 87.1708 4C87.1708 3.14667 87.4774 2.41333 88.0908 1.8C88.7308 1.18667 89.4908 0.879999 90.3708 0.879999C91.1708 0.879999 91.9174 1.16 92.6108 1.72V4.04C91.9708 3.48 91.3308 3.2 90.6908 3.2C89.8108 3.2 89.3708 3.6 89.3708 4.4C89.3708 4.8 89.5441 5.21333 89.8908 5.64H93.8508L92.5708 7.96H85.1308ZM86.6508 36V12.88L91.6908 10.2V36H86.6508ZM107.917 34.84C107.091 35 106.237 35.08 105.357 35.08C102.904 35.08 100.944 34.16 99.4773 32.32C98.2773 30.7733 97.6773 28.9067 97.6773 26.72C97.6773 23.7867 98.4773 21.48 100.077 19.8C101.491 18.3067 103.357 17.56 105.677 17.56C108.051 17.56 109.904 18.32 111.237 19.84C112.384 21.1467 112.957 22.8533 112.957 24.96V33.52C112.957 36.6667 112.131 39.1467 110.477 40.96C108.931 42.6667 106.824 43.52 104.157 43.52C102.477 43.52 100.837 43.0667 99.2373 42.16V37.8C100.677 38.6267 102.117 39.04 103.557 39.04C106.144 39.04 107.597 37.64 107.917 34.84ZM107.957 24.88C107.957 23.12 107.197 22.24 105.677 22.24C104.717 22.24 103.957 22.6267 103.397 23.4C102.864 24.1733 102.597 25.2267 102.597 26.56C102.597 29.3867 103.611 30.8 105.637 30.8C106.704 30.8 107.477 30.5333 107.957 30V24.88ZM139.425 31.16H143.025V36H138.945C138.038 36 137.198 35.88 136.425 35.64C136.078 38.2 135.052 40.2267 133.345 41.72C131.798 43.0533 129.945 43.72 127.785 43.72C126.105 43.72 124.465 43.2933 122.865 42.44V38.04C124.252 38.8133 125.612 39.2 126.945 39.2C128.412 39.2 129.545 38.72 130.345 37.76C131.172 36.8267 131.585 35.52 131.585 33.84V20.88L134.865 19.16L136.585 18.24V18.28L136.625 18.24V28.28C136.625 29.32 136.838 30.0667 137.265 30.52C137.692 30.9467 138.412 31.16 139.425 31.16ZM169.84 14.2C169.04 14.2 168.4 13.96 167.92 13.48C167.44 13 167.2 12.3467 167.2 11.52C167.2 10.7467 167.44 10.12 167.92 9.64C168.4 9.16 169.04 8.92 169.84 8.92C170.64 8.92 171.267 9.16 171.72 9.64C172.2 10.0933 172.44 10.72 172.44 11.52C172.44 13.3067 171.573 14.2 169.84 14.2ZM181.84 31.16H185.44V36H181.36C179.413 36 177.8 35.48 176.52 34.44C175.24 35.48 173.627 36 171.68 36H154.4C152.453 36 150.84 35.48 149.56 34.44C148.28 35.48 146.667 36 144.72 36H140.64V31.16H144.24C145.253 31.16 145.973 30.9467 146.4 30.52C146.827 30.0667 147.04 29.32 147.04 28.28V23L152.08 20.36V28.28C152.08 29.9867 152.76 30.9333 154.12 31.12C155.4 27.2267 157.267 24.0667 159.72 21.64C162.44 18.92 165.56 17.56 169.08 17.56C172.227 17.56 174.747 18.6533 176.64 20.84C178.24 22.68 179.04 24.96 179.04 27.68V28.52C179.04 30.28 179.973 31.16 181.84 31.16ZM171.48 31.16C172.44 31.16 173.093 30.96 173.44 30.56C173.813 30.1333 174 29.36 174 28.24V27.68C174 26.08 173.547 24.7733 172.64 23.76C171.733 22.7467 170.56 22.24 169.12 22.24C167.04 22.24 165.093 23.04 163.28 24.64C161.493 26.24 160.08 28.4133 159.04 31.16H171.48ZM195.423 14.2C194.623 14.2 193.983 13.96 193.503 13.48C193.023 13 192.783 12.3467 192.783 11.52C192.783 10.7467 193.023 10.12 193.503 9.64C193.983 9.16 194.623 8.92 195.423 8.92C196.223 8.92 196.849 9.16 197.303 9.64C197.783 10.0933 198.023 10.72 198.023 11.52C198.023 13.3067 197.156 14.2 195.423 14.2ZM183.023 36V31.16H188.983C193.676 31.16 197.409 29.76 200.183 26.96C198.369 23.7867 196.169 22.2 193.583 22.2C191.449 22.2 189.116 23.36 186.583 25.68V21.24C188.823 18.7867 191.356 17.56 194.183 17.56C196.263 17.56 198.289 18.32 200.263 19.84C202.236 21.36 203.983 23.52 205.503 26.32V28.32C203.583 30.7733 201.183 32.6667 198.303 34C195.449 35.3333 192.329 36 188.943 36H183.023ZM209.584 7.96L210.864 5.64H212.064C211.771 5.10666 211.624 4.56 211.624 4C211.624 3.14667 211.931 2.41333 212.544 1.8C213.184 1.18667 213.944 0.879999 214.824 0.879999C215.624 0.879999 216.371 1.16 217.064 1.72V4.04C216.424 3.48 215.784 3.2 215.144 3.2C214.264 3.2 213.824 3.6 213.824 4.4C213.824 4.8 213.997 5.21333 214.344 5.64H218.304L217.024 7.96H209.584ZM211.104 36V12.88L216.144 10.2V36H211.104Z" fill="#15C4A2"/>
</g>
<defs>
<filter id="filter0_i_105_23" x="0.069519" y="0.879883" width="218.234" height="48.04" filterUnits="userSpaceOnUse" color-interpolation-filters="sRGB">
<feFlood flood-opacity="0" result="BackgroundImageFix"/>
<feBlend mode="normal" in="SourceGraphic" in2="BackgroundImageFix" result="shape"/>
<feColorMatrix in="SourceAlpha" type="matrix" values="0 0 0 0 0 0 0 0 0 0 0 0 0 0 0 0 0 0 127 0" result="hardAlpha"/>
<feOffset dy="4"/>
<feGaussianBlur stdDeviation="2"/>
<feComposite in2="hardAlpha" operator="arithmetic" k2="-1" k3="1"/>
<feColorMatrix type="matrix" values="0 0 0 0 0 0 0 0 0 0 0 0 0 0 0 0 0 0 0.53 0"/>
<feBlend mode="normal" in2="shape" result="effect1_innerShadow_105_23"/>
</filter>
</defs>
</svg>
