<svg width="213" height="53" viewBox="0 0 213 53" fill="none" xmlns="http://www.w3.org/2000/svg">
<g filter="url(#filter0_i_105_22)">
<path d="M25.2708 36C24.9508 38.4533 23.5641 40.3733 21.1108 41.76C18.8974 42.9867 16.1374 43.6 12.8308 43.6C8.40412 43.6 5.07078 42.3333 2.83078 39.8C1.17745 37.9067 0.350781 35.5867 0.350781 32.84C0.350781 30.7333 0.844115 28.8933 1.83078 27.32L6.63078 26.32C5.56411 28.1333 5.03078 30.04 5.03078 32.04C5.03078 34.28 5.69745 36 7.03078 37.2C8.36411 38.4267 10.2974 39.04 12.8308 39.04C16.7774 39.04 19.1774 38.0267 20.0308 36H16.1908L18.7108 31.16H25.3908V36H25.2708ZM10.1508 52.44C9.35078 52.44 8.71078 52.1867 8.23078 51.68C7.75078 51.2 7.51078 50.56 7.51078 49.76C7.51078 48.9867 7.75078 48.36 8.23078 47.88C8.71078 47.4 9.35078 47.16 10.1508 47.16C10.9508 47.16 11.5774 47.3867 12.0308 47.84C12.5108 48.32 12.7508 48.96 12.7508 49.76C12.7508 51.5467 11.8841 52.44 10.1508 52.44ZM16.3108 52.44C15.5108 52.44 14.8708 52.2 14.3908 51.72C13.9108 51.24 13.6708 50.5867 13.6708 49.76C13.6708 48.0267 14.5508 47.16 16.3108 47.16C17.1108 47.16 17.7374 47.3867 18.1908 47.84C18.6708 48.32 18.9108 48.96 18.9108 49.76C18.9108 51.5467 18.0441 52.44 16.3108 52.44ZM37.583 31.16H41.183V36H37.103C35.1563 36 33.543 35.48 32.263 34.44C30.983 35.48 29.3696 36 27.423 36H23.343V31.16H26.943C27.9563 31.16 28.6763 30.9467 29.103 30.52C29.5296 30.0667 29.743 29.32 29.743 28.28V20.88L34.783 18.24V28.28C34.783 29.32 34.9963 30.0667 35.423 30.52C35.8496 30.9467 36.5696 31.16 37.583 31.16ZM32.503 39.64C33.303 39.64 33.9296 39.8667 34.383 40.32C34.863 40.8 35.103 41.44 35.103 42.24C35.103 44.0267 34.2363 44.92 32.503 44.92C31.703 44.92 31.063 44.68 30.583 44.2C30.103 43.72 29.863 43.0667 29.863 42.24C29.863 41.4667 30.103 40.84 30.583 40.36C31.063 39.88 31.703 39.64 32.503 39.64ZM43.4927 23.76C44.1593 21.52 45.346 19.76 47.0527 18.48C48.786 17.2 50.786 16.56 53.0527 16.56C56.0927 16.56 58.586 17.56 60.5327 19.56C62.346 21.4267 63.2527 23.84 63.2527 26.8V28.56C63.2527 30.9867 62.4927 32.88 60.9727 34.24C59.6393 35.4133 57.906 36 55.7727 36H50.7327C49.826 36 48.9727 35.8667 48.1727 35.6C47.346 35.8667 46.4927 36 45.6127 36H38.7727V31.16H42.8527C42.3993 30.1733 42.1727 29.0933 42.1727 27.92C42.1727 26.2667 42.6127 24.88 43.4927 23.76ZM58.2527 28.24V26.8C58.2527 25.12 57.7593 23.7733 56.7727 22.76C55.8127 21.7467 54.5327 21.24 52.9327 21.24C51.8393 21.24 50.8927 21.48 50.0927 21.96C51.346 22.3333 52.3327 23.0533 53.0527 24.12C53.7993 25.1867 54.1727 26.4533 54.1727 27.92C54.1727 29.0933 53.946 30.1733 53.4927 31.16H55.6927C56.6793 31.16 57.346 30.96 57.6927 30.56C58.066 30.1333 58.2527 29.36 58.2527 28.24ZM48.1727 30.8C49.8793 30.24 50.7327 29.1333 50.7327 27.48C50.7327 26.6533 50.4927 26 50.0127 25.52C49.5593 25.0133 48.946 24.76 48.1727 24.76C47.3993 24.76 46.7727 25.0133 46.2927 25.52C45.8393 26 45.6127 26.6533 45.6127 27.48C45.6127 29.1333 46.466 30.24 48.1727 30.8ZM75.4711 14.2C74.6711 14.2 74.0311 13.96 73.5511 13.48C73.0711 13 72.8311 12.3467 72.8311 11.52C72.8311 10.7467 73.0711 10.12 73.5511 9.64C74.0311 9.16 74.6711 8.92 75.4711 8.92C76.2711 8.92 76.8978 9.16 77.3511 9.64C77.8311 10.0933 78.0711 10.72 78.0711 11.52C78.0711 13.3067 77.2044 14.2 75.4711 14.2ZM66.2711 36L68.7911 31.16H75.1111C76.4711 31.16 77.1511 30.3733 77.1511 28.8C77.1511 25.84 75.7378 23.5733 72.9111 22L75.3911 17.76C79.9244 20.4267 82.1911 24.1333 82.1911 28.88C82.1911 33.6267 80.1378 36 76.0311 36H66.2711ZM97.5736 34.84C96.7469 35 95.8936 35.08 95.0136 35.08C92.5603 35.08 90.6003 34.16 89.1336 32.32C87.9336 30.7733 87.3336 28.9067 87.3336 26.72C87.3336 23.7867 88.1336 21.48 89.7336 19.8C91.1469 18.3067 93.0136 17.56 95.3336 17.56C97.7069 17.56 99.5603 18.32 100.894 19.84C102.04 21.1467 102.614 22.8533 102.614 24.96V33.52C102.614 36.6667 101.787 39.1467 100.134 40.96C98.5869 42.6667 96.4803 43.52 93.8136 43.52C92.1336 43.52 90.4936 43.0667 88.8936 42.16V37.8C90.3336 38.6267 91.7736 39.04 93.2136 39.04C95.8003 39.04 97.2536 37.64 97.5736 34.84ZM97.6136 24.88C97.6136 23.12 96.8536 22.24 95.3336 22.24C94.3736 22.24 93.6136 22.6267 93.0536 23.4C92.5203 24.1733 92.2536 25.2267 92.2536 26.56C92.2536 29.3867 93.2669 30.8 95.2936 30.8C96.3603 30.8 97.1336 30.5333 97.6136 30V24.88ZM156.801 14.2C156.001 14.2 155.361 13.96 154.881 13.48C154.401 13 154.161 12.3467 154.161 11.52C154.161 10.7467 154.401 10.12 154.881 9.64C155.361 9.16 156.001 8.92 156.801 8.92C157.601 8.92 158.228 9.16 158.681 9.64C159.161 10.0933 159.401 10.72 159.401 11.52C159.401 13.3067 158.535 14.2 156.801 14.2ZM169.561 31.16H173.161V36H169.081C167.135 36 165.521 35.48 164.241 34.44C162.961 35.48 161.348 36 159.401 36H142.121C141.215 36 140.375 35.88 139.601 35.64C139.095 38.2 137.801 40.2133 135.721 41.68C133.855 42.96 131.588 43.6 128.921 43.6C125.321 43.6 122.535 42.3333 120.561 39.8C119.015 37.8267 118.241 35.5067 118.241 32.84C118.241 30.7333 118.735 28.8933 119.721 27.32L124.521 26.32C123.455 28.1333 122.921 30.04 122.921 32.04C122.921 34.0667 123.495 35.7067 124.641 36.96C125.735 38.16 127.161 38.76 128.921 38.76C130.761 38.76 132.188 38.2933 133.201 37.36C134.241 36.4267 134.761 35.12 134.761 33.44V23L139.801 20.36V28.28C139.801 29.9867 140.481 30.9333 141.841 31.12C143.095 27.2533 144.961 24.0933 147.441 21.64C150.161 18.92 153.281 17.56 156.801 17.56C159.948 17.56 162.468 18.6533 164.361 20.84C165.961 22.68 166.761 24.96 166.761 27.68V28.52C166.761 30.28 167.695 31.16 169.561 31.16ZM159.201 31.16C160.161 31.16 160.815 30.96 161.161 30.56C161.535 30.1333 161.721 29.36 161.721 28.24V27.68C161.721 26.08 161.268 24.7733 160.361 23.76C159.455 22.7467 158.281 22.24 156.841 22.24C154.761 22.24 152.815 23.04 151.001 24.64C149.215 26.24 147.801 28.4133 146.761 31.16H159.201ZM185.005 31.16H188.605V36H184.525C182.578 36 180.965 35.48 179.685 34.44C178.405 35.48 176.792 36 174.845 36H170.765V31.16H174.365C175.378 31.16 176.098 30.9467 176.525 30.52C176.952 30.0667 177.165 29.32 177.165 28.28V20.88L182.205 18.24V28.28C182.205 29.32 182.418 30.0667 182.845 30.52C183.272 30.9467 183.992 31.16 185.005 31.16ZM174.645 39.64C175.445 39.64 176.072 39.8667 176.525 40.32C177.005 40.8 177.245 41.44 177.245 42.24C177.245 44.0267 176.378 44.92 174.645 44.92C173.845 44.92 173.205 44.68 172.725 44.2C172.245 43.72 172.005 43.0667 172.005 42.24C172.005 40.5067 172.885 39.64 174.645 39.64ZM180.805 39.64C181.605 39.64 182.232 39.8667 182.685 40.32C183.165 40.8 183.405 41.44 183.405 42.24C183.405 44.0267 182.538 44.92 180.805 44.92C180.005 44.92 179.365 44.68 178.885 44.2C178.405 43.72 178.165 43.0667 178.165 42.24C178.165 40.5067 179.045 39.64 180.805 39.64ZM186.195 36V31.16H189.795C190.808 31.16 191.528 30.9467 191.955 30.52C192.381 30.0667 192.595 29.32 192.595 28.28V20.88L197.635 18.24V28.52C197.635 30.9467 196.888 32.84 195.395 34.2C194.088 35.4 192.381 36 190.275 36H186.195ZM194.675 44.92C193.875 44.92 193.235 44.68 192.755 44.2C192.275 43.72 192.035 43.0667 192.035 42.24C192.035 41.4667 192.275 40.84 192.755 40.36C193.235 39.88 193.875 39.64 194.675 39.64C195.475 39.64 196.101 39.8667 196.555 40.32C197.035 40.8 197.275 41.44 197.275 42.24C197.275 44.0267 196.408 44.92 194.675 44.92ZM203.303 7.96L204.583 5.64H205.783C205.489 5.10666 205.343 4.56 205.343 4C205.343 3.14667 205.649 2.41333 206.263 1.8C206.903 1.18667 207.663 0.879999 208.543 0.879999C209.343 0.879999 210.089 1.16 210.783 1.72V4.04C210.143 3.48 209.503 3.2 208.863 3.2C207.983 3.2 207.543 3.6 207.543 4.4C207.543 4.8 207.716 5.21333 208.063 5.64H212.023L210.743 7.96H203.303ZM204.823 36V12.88L209.863 10.2V36H204.823Z" fill="#FFB700"/>
</g>
<defs>
<filter id="filter0_i_105_22" x="0.350769" y="0.879883" width="211.672" height="55.5601" filterUnits="userSpaceOnUse" color-interpolation-filters="sRGB">
<feFlood flood-opacity="0" result="BackgroundImageFix"/>
<feBlend mode="normal" in="SourceGraphic" in2="BackgroundImageFix" result="shape"/>
<feColorMatrix in="SourceAlpha" type="matrix" values="0 0 0 0 0 0 0 0 0 0 0 0 0 0 0 0 0 0 127 0" result="hardAlpha"/>
<feOffset dy="4"/>
<feGaussianBlur stdDeviation="2"/>
<feComposite in2="hardAlpha" operator="arithmetic" k2="-1" k3="1"/>
<feColorMatrix type="matrix" values="0 0 0 0 0 0 0 0 0 0 0 0 0 0 0 0 0 0 0.38 0"/>
<feBlend mode="normal" in2="shape" result="effect1_innerShadow_105_22"/>
</filter>
</defs>
</svg>
