<svg width="252" height="46" viewBox="0 0 252 46" fill="none" xmlns="http://www.w3.org/2000/svg">
<g filter="url(#filter0_i_105_24)">
<path d="M35.7252 11.56C34.9092 11.56 34.2492 11.32 33.7452 10.84C33.2652 10.336 33.0252 9.676 33.0252 8.86C33.0252 8.044 33.2652 7.396 33.7452 6.916C34.2492 6.436 34.9092 6.196 35.7252 6.196C36.5172 6.196 37.1532 6.436 37.6332 6.916C38.1132 7.396 38.3532 8.044 38.3532 8.86C38.3532 9.676 38.1132 10.336 37.6332 10.84C37.1532 11.32 36.5172 11.56 35.7252 11.56ZM46.8492 25.96H50.3772V31H46.3452C44.7132 31 43.3212 30.592 42.1692 29.776C41.0172 30.592 39.6132 31 37.9572 31H22.1532C21.5772 31 20.9652 30.94 20.3172 30.82C19.8132 33.076 18.6132 34.84 16.7172 36.112C15.0132 37.264 12.9732 37.84 10.5972 37.84C7.28516 37.84 4.72916 36.676 2.92916 34.348C1.51316 32.548 0.805156 30.424 0.805156 27.976C0.805156 26.152 1.22516 24.532 2.06516 23.116L7.03316 22.072C6.14516 23.656 5.70116 25.336 5.70116 27.112C5.70116 28.816 6.14516 30.184 7.03316 31.216C7.94516 32.272 9.13316 32.8 10.5972 32.8C13.7652 32.8 15.3492 31.372 15.3492 28.516V19.264L20.5692 16.492V23.872C20.5692 25.168 21.1092 25.864 22.1892 25.96C23.3652 22.552 25.0692 19.78 27.3012 17.644C29.7252 15.316 32.4972 14.152 35.6172 14.152C38.5212 14.152 40.8372 15.16 42.5652 17.176C44.0292 18.856 44.7612 20.932 44.7612 23.404V24.088C44.7612 25.336 45.4572 25.96 46.8492 25.96ZM37.7772 25.96C38.4972 25.96 38.9652 25.828 39.1812 25.564C39.4212 25.3 39.5412 24.724 39.5412 23.836V23.404C39.5412 22.108 39.1812 21.064 38.4612 20.272C37.7412 19.456 36.8052 19.048 35.6532 19.048C33.9972 19.048 32.4252 19.672 30.9372 20.92C29.4732 22.144 28.2972 23.824 27.4092 25.96H37.7772ZM61.3543 25.96H64.8463V31H60.8503C59.1703 31 57.7783 30.592 56.6743 29.776C55.5223 30.592 54.1183 31 52.4623 31H48.4303V25.96H51.9583C52.7263 25.96 53.2663 25.804 53.5783 25.492C53.8903 25.18 54.0463 24.64 54.0463 23.872V17.572L59.2663 14.8V23.872C59.2663 24.64 59.4103 25.18 59.6983 25.492C60.0103 25.804 60.5623 25.96 61.3543 25.96ZM51.5983 34.096C52.3903 34.096 53.0263 34.336 53.5063 34.816C54.0103 35.32 54.2623 35.968 54.2623 36.76C54.2623 37.576 54.0103 38.224 53.5063 38.704C53.0263 39.208 52.3903 39.46 51.5983 39.46C50.7823 39.46 50.1223 39.208 49.6183 38.704C49.1383 38.2 48.8983 37.552 48.8983 36.76C48.8983 35.968 49.1383 35.32 49.6183 34.816C50.1223 34.336 50.7823 34.096 51.5983 34.096ZM57.6103 34.096C58.4023 34.096 59.0383 34.336 59.5183 34.816C59.9983 35.296 60.2383 35.944 60.2383 36.76C60.2383 37.576 59.9983 38.224 59.5183 38.704C59.0383 39.208 58.4023 39.46 57.6103 39.46C56.7943 39.46 56.1343 39.208 55.6303 38.704C55.1503 38.2 54.9103 37.552 54.9103 36.76C54.9103 35.968 55.1503 35.32 55.6303 34.816C56.1343 34.336 56.7943 34.096 57.6103 34.096ZM62.9499 31V25.96H66.4779C67.2459 25.96 67.7859 25.804 68.0979 25.492C68.4099 25.18 68.5659 24.64 68.5659 23.872V17.572L73.7859 14.8V24.088C73.7859 26.32 73.0899 28.072 71.6979 29.344C70.4739 30.448 68.9019 31 66.9819 31H62.9499ZM69.6459 39.46C68.8299 39.46 68.1699 39.208 67.6659 38.704C67.1859 38.224 66.9459 37.576 66.9459 36.76C66.9459 35.944 67.1859 35.296 67.6659 34.816C68.1699 34.336 68.8299 34.096 69.6459 34.096C70.4379 34.096 71.0739 34.336 71.5539 34.816C72.0339 35.296 72.2739 35.944 72.2739 36.76C72.2739 37.576 72.0339 38.224 71.5539 38.704C71.0739 39.208 70.4379 39.46 69.6459 39.46ZM78.6552 7.204L79.9152 4.828H81.0672C80.8032 4.324 80.6712 3.808 80.6712 3.28C80.6712 2.416 80.9712 1.708 81.5712 1.156C82.1472 0.627999 82.8432 0.364 83.6592 0.364C84.4512 0.364 85.1832 0.651999 85.8552 1.228V3.532C85.2312 2.98 84.6192 2.704 84.0192 2.704C83.6352 2.704 83.3352 2.812 83.1192 3.028C82.9272 3.22 82.8312 3.448 82.8312 3.712C82.8312 4.072 82.9992 4.444 83.3352 4.828H87.0072L85.7472 7.204H78.6552ZM80.2752 31V11.992L85.4952 9.22V31H80.2752ZM99.7222 29.92C99.1942 29.992 98.6182 30.028 97.9942 30.028C95.7382 30.028 93.9382 29.188 92.5942 27.508C91.4662 26.14 90.9022 24.484 90.9022 22.54C90.9022 19.876 91.6342 17.764 93.0982 16.204C94.4182 14.836 96.1462 14.152 98.2822 14.152C100.466 14.152 102.182 14.848 103.43 16.24C104.486 17.464 105.014 19.036 105.014 20.956V28.588C105.014 31.732 104.15 34.132 102.422 35.788C101.078 37.06 99.3742 37.732 97.3102 37.804C97.2142 37.804 97.1182 37.804 97.0222 37.804C95.3902 37.804 93.8182 37.36 92.3062 36.472V31.9C93.7222 32.716 95.0902 33.124 96.4102 33.124C96.6262 33.124 96.8182 33.112 96.9862 33.088C98.5702 32.92 99.4822 31.864 99.7222 29.92ZM99.7942 25.132V20.812C99.7942 19.636 99.2902 19.048 98.2822 19.048C96.7942 19.048 96.0502 20.152 96.0502 22.36C96.0502 24.52 96.8062 25.6 98.3182 25.6C98.9902 25.6 99.4822 25.444 99.7942 25.132ZM142.249 31C141.913 33.256 140.593 34.996 138.289 36.22C136.297 37.3 133.813 37.84 130.837 37.84C126.733 37.84 123.661 36.676 121.621 34.348C120.085 32.62 119.317 30.496 119.317 27.976C119.317 26.152 119.737 24.532 120.577 23.116L125.545 22.072C124.657 23.656 124.213 25.336 124.213 27.112C124.213 31.096 126.421 33.088 130.837 33.088C133.957 33.088 135.937 32.392 136.777 31H133.393L135.985 25.96H142.357V31H142.249ZM127.885 45.508C127.093 45.508 126.445 45.256 125.941 44.752C125.461 44.272 125.221 43.624 125.221 42.808C125.221 42.016 125.461 41.368 125.941 40.864C126.445 40.384 127.093 40.144 127.885 40.144C128.677 40.144 129.313 40.384 129.793 40.864C130.297 41.368 130.549 42.016 130.549 42.808C130.549 43.624 130.309 44.272 129.829 44.752C129.349 45.256 128.701 45.508 127.885 45.508ZM133.897 45.508C133.105 45.508 132.457 45.256 131.953 44.752C131.473 44.272 131.233 43.624 131.233 42.808C131.233 42.016 131.473 41.368 131.953 40.864C132.457 40.384 133.105 40.144 133.897 40.144C134.689 40.144 135.325 40.384 135.805 40.864C136.309 41.368 136.561 42.016 136.561 42.808C136.561 43.624 136.321 44.272 135.841 44.752C135.361 45.256 134.713 45.508 133.897 45.508ZM164.009 25.96H167.249V31H163.973C162.125 31 160.625 30.796 159.473 30.388C158.345 29.98 157.301 29.272 156.341 28.264C153.293 30.088 149.861 31 146.045 31H140.645V25.96H146.081C149.993 25.96 153.125 24.856 155.477 22.648C153.965 20.2 152.189 18.976 150.149 18.976C148.301 18.976 146.165 20.02 143.741 22.108V17.572C145.781 15.292 148.097 14.152 150.689 14.152H150.761C152.681 14.152 154.541 14.848 156.341 16.24C158.141 17.608 159.737 19.564 161.129 22.108V24.016C160.721 24.52 160.325 24.988 159.941 25.42C160.781 25.78 162.137 25.96 164.009 25.96ZM152.057 34.096C152.849 34.096 153.485 34.336 153.965 34.816C154.445 35.296 154.685 35.944 154.685 36.76C154.685 37.576 154.445 38.224 153.965 38.704C153.485 39.208 152.849 39.46 152.057 39.46C151.241 39.46 150.581 39.208 150.077 38.704C149.597 38.224 149.357 37.576 149.357 36.76C149.357 35.944 149.597 35.296 150.077 34.816C150.581 34.336 151.241 34.096 152.057 34.096ZM165.325 31V25.96H169.357C170.125 25.96 170.653 25.816 170.941 25.528C171.253 25.216 171.409 24.664 171.409 23.872V19.264L176.629 16.492V23.872C176.629 24.64 176.773 25.18 177.061 25.492C177.373 25.804 177.925 25.96 178.717 25.96H181.489C182.257 25.96 182.797 25.804 183.109 25.492C183.421 25.18 183.577 24.64 183.577 23.872V18.4L188.797 15.664V23.872C188.797 24.664 188.941 25.216 189.229 25.528C189.541 25.816 190.081 25.96 190.849 25.96H193.693C194.461 25.96 194.989 25.816 195.277 25.528C195.589 25.216 195.745 24.664 195.745 23.872V17.572L201.001 14.8V23.116C201.001 24.172 201.193 24.916 201.577 25.348C201.961 25.756 202.657 25.96 203.665 25.96H207.049V31H203.413C201.517 31 199.933 30.496 198.661 29.488C197.581 30.424 196.177 30.928 194.449 31H190.381C188.725 31 187.321 30.556 186.169 29.668C185.113 30.484 183.817 30.928 182.281 31H178.213C176.557 31 175.153 30.556 174.001 29.668C172.873 30.556 171.481 31 169.825 31H165.325ZM216.569 12.136C215.753 12.136 215.093 11.896 214.589 11.416C214.109 10.912 213.869 10.252 213.869 9.436C213.869 8.62 214.109 7.972 214.589 7.492C215.093 7.012 215.753 6.772 216.569 6.772C217.361 6.772 217.997 7.012 218.477 7.492C218.957 7.972 219.197 8.62 219.197 9.436C219.197 10.252 218.957 10.912 218.477 11.416C217.997 11.896 217.361 12.136 216.569 12.136ZM222.833 25.96H228.017V31H219.701C218.477 31 217.445 30.904 216.605 30.712C215.741 30.904 214.709 31 213.509 31H205.157V25.96H210.377C209.681 24.64 209.333 23.332 209.333 22.036C209.333 19.612 210.041 17.668 211.457 16.204C212.777 14.836 214.493 14.152 216.605 14.152C219.005 14.152 220.877 15.028 222.221 16.78C223.325 18.196 223.877 19.948 223.877 22.036C223.877 23.332 223.529 24.64 222.833 25.96ZM216.605 25.456C217.253 25.12 217.781 24.604 218.189 23.908C218.597 23.188 218.801 22.456 218.801 21.712C218.801 19.936 218.069 19.048 216.605 19.048C215.117 19.048 214.373 19.924 214.373 21.676C214.373 22.444 214.577 23.188 214.985 23.908C215.393 24.604 215.933 25.12 216.605 25.456ZM234.282 11.56C233.466 11.56 232.806 11.32 232.302 10.84C231.822 10.336 231.582 9.676 231.582 8.86C231.582 8.044 231.822 7.396 232.302 6.916C232.806 6.436 233.466 6.196 234.282 6.196C235.074 6.196 235.71 6.436 236.19 6.916C236.67 7.396 236.91 8.044 236.91 8.86C236.91 9.676 236.67 10.336 236.19 10.84C235.71 11.32 235.074 11.56 234.282 11.56ZM242.526 25.96V31H238.53C236.85 31 235.458 30.592 234.354 29.776C233.202 30.592 231.798 31 230.142 31H226.11V25.96H229.638C230.406 25.96 230.946 25.804 231.258 25.492C231.57 25.18 231.726 24.64 231.726 23.872V17.572L236.946 14.8V23.872C236.946 24.64 237.102 25.18 237.414 25.492C237.726 25.804 238.266 25.96 239.034 25.96H242.526ZM240.63 31V25.96H244.158C244.926 25.96 245.466 25.804 245.778 25.492C246.09 25.18 246.246 24.64 246.246 23.872V17.572L251.466 14.8V24.088C251.466 26.32 250.77 28.072 249.378 29.344C248.154 30.448 246.582 31 244.662 31H240.63ZM247.326 39.46C246.51 39.46 245.85 39.208 245.346 38.704C244.866 38.224 244.626 37.576 244.626 36.76C244.626 35.944 244.866 35.296 245.346 34.816C245.85 34.336 246.51 34.096 247.326 34.096C248.118 34.096 248.754 34.336 249.234 34.816C249.714 35.296 249.954 35.944 249.954 36.76C249.954 37.576 249.714 38.224 249.234 38.704C248.754 39.208 248.118 39.46 247.326 39.46Z" fill="#921D62"/>
</g>
<defs>
<filter id="filter0_i_105_24" x="0.805145" y="0.364014" width="250.66" height="49.144" filterUnits="userSpaceOnUse" color-interpolation-filters="sRGB">
<feFlood flood-opacity="0" result="BackgroundImageFix"/>
<feBlend mode="normal" in="SourceGraphic" in2="BackgroundImageFix" result="shape"/>
<feColorMatrix in="SourceAlpha" type="matrix" values="0 0 0 0 0 0 0 0 0 0 0 0 0 0 0 0 0 0 127 0" result="hardAlpha"/>
<feOffset dy="4"/>
<feGaussianBlur stdDeviation="2"/>
<feComposite in2="hardAlpha" operator="arithmetic" k2="-1" k3="1"/>
<feColorMatrix type="matrix" values="0 0 0 0 0.0916667 0 0 0 0 0.0737153 0 0 0 0 0.0737153 0 0 0 0.9 0"/>
<feBlend mode="normal" in2="shape" result="effect1_innerShadow_105_24"/>
</filter>
</defs>
</svg>
