<svg width="253" height="46" viewBox="0 0 253 46" fill="none" xmlns="http://www.w3.org/2000/svg">
<g filter="url(#filter0_i_105_24)">
<path d="M23.7372 31C23.4012 33.256 22.0812 34.996 19.7772 36.22C17.7852 37.3 15.3012 37.84 12.3252 37.84C8.22116 37.84 5.14916 36.676 3.10916 34.348C1.57316 32.62 0.805156 30.496 0.805156 27.976C0.805156 26.152 1.22516 24.532 2.06516 23.116L7.03316 22.072C6.14516 23.656 5.70116 25.336 5.70116 27.112C5.70116 31.096 7.90916 33.088 12.3252 33.088C15.4452 33.088 17.4252 32.392 18.2652 31H14.8812L17.4732 25.96H23.8452V31H23.7372ZM9.37316 45.508C8.58116 45.508 7.93316 45.256 7.42916 44.752C6.94916 44.272 6.70916 43.624 6.70916 42.808C6.70916 42.016 6.94916 41.368 7.42916 40.864C7.93316 40.384 8.58116 40.144 9.37316 40.144C10.1652 40.144 10.8012 40.384 11.2812 40.864C11.7852 41.368 12.0372 42.016 12.0372 42.808C12.0372 43.624 11.7972 44.272 11.3172 44.752C10.8372 45.256 10.1892 45.508 9.37316 45.508ZM15.3852 45.508C14.5932 45.508 13.9452 45.256 13.4412 44.752C12.9612 44.272 12.7212 43.624 12.7212 42.808C12.7212 42.016 12.9612 41.368 13.4412 40.864C13.9452 40.384 14.5932 40.144 15.3852 40.144C16.1772 40.144 16.8132 40.384 17.2932 40.864C17.7972 41.368 18.0492 42.016 18.0492 42.808C18.0492 43.624 17.8092 44.272 17.3292 44.752C16.8492 45.256 16.2012 45.508 15.3852 45.508ZM45.4975 25.96H48.7375V31H45.4615C43.6135 31 42.1135 30.796 40.9615 30.388C39.8335 29.98 38.7895 29.272 37.8295 28.264C34.7815 30.088 31.3495 31 27.5335 31H22.1335V25.96H27.5695C31.4815 25.96 34.6135 24.856 36.9655 22.648C35.4535 20.2 33.6775 18.976 31.6375 18.976C29.7895 18.976 27.6535 20.02 25.2295 22.108V17.572C27.2695 15.292 29.5855 14.152 32.1775 14.152H32.2495C34.1695 14.152 36.0295 14.848 37.8295 16.24C39.6295 17.608 41.2255 19.564 42.6175 22.108V24.016C42.2095 24.52 41.8135 24.988 41.4295 25.42C42.2695 25.78 43.6255 25.96 45.4975 25.96ZM33.5455 34.096C34.3375 34.096 34.9735 34.336 35.4535 34.816C35.9335 35.296 36.1735 35.944 36.1735 36.76C36.1735 37.576 35.9335 38.224 35.4535 38.704C34.9735 39.208 34.3375 39.46 33.5455 39.46C32.7295 39.46 32.0695 39.208 31.5655 38.704C31.0855 38.224 30.8455 37.576 30.8455 36.76C30.8455 35.944 31.0855 35.296 31.5655 34.816C32.0695 34.336 32.7295 34.096 33.5455 34.096ZM46.8132 31V25.96H50.8452C51.6132 25.96 52.1412 25.816 52.4292 25.528C52.7412 25.216 52.8972 24.664 52.8972 23.872V19.264L58.1172 16.492V23.872C58.1172 24.64 58.2612 25.18 58.5492 25.492C58.8612 25.804 59.4132 25.96 60.2052 25.96H62.9772C63.7452 25.96 64.2852 25.804 64.5972 25.492C64.9092 25.18 65.0652 24.64 65.0652 23.872V18.4L70.2852 15.664V23.872C70.2852 24.664 70.4292 25.216 70.7172 25.528C71.0292 25.816 71.5692 25.96 72.3372 25.96H75.1812C75.9492 25.96 76.4772 25.816 76.7652 25.528C77.0772 25.216 77.2332 24.664 77.2332 23.872V17.572L82.4892 14.8V23.116C82.4892 24.172 82.6812 24.916 83.0652 25.348C83.4492 25.756 84.1452 25.96 85.1532 25.96H88.5372V31H84.9012C83.0052 31 81.4212 30.496 80.1492 29.488C79.0692 30.424 77.6652 30.928 75.9372 31H71.8692C70.2132 31 68.8092 30.556 67.6572 29.668C66.6012 30.484 65.3052 30.928 63.7692 31H59.7012C58.0452 31 56.6412 30.556 55.4892 29.668C54.3612 30.556 52.9692 31 51.3132 31H46.8132ZM98.0572 12.136C97.2412 12.136 96.5812 11.896 96.0772 11.416C95.5972 10.912 95.3572 10.252 95.3572 9.436C95.3572 8.62 95.5972 7.972 96.0772 7.492C96.5812 7.012 97.2412 6.772 98.0572 6.772C98.8492 6.772 99.4852 7.012 99.9652 7.492C100.445 7.972 100.685 8.62 100.685 9.436C100.685 10.252 100.445 10.912 99.9652 11.416C99.4852 11.896 98.8492 12.136 98.0572 12.136ZM104.321 25.96H109.505V31H101.189C99.9652 31 98.9332 30.904 98.0932 30.712C97.2292 30.904 96.1972 31 94.9972 31H86.6452V25.96H91.8652C91.1692 24.64 90.8212 23.332 90.8212 22.036C90.8212 19.612 91.5292 17.668 92.9452 16.204C94.2652 14.836 95.9812 14.152 98.0932 14.152C100.493 14.152 102.365 15.028 103.709 16.78C104.813 18.196 105.365 19.948 105.365 22.036C105.365 23.332 105.017 24.64 104.321 25.96ZM98.0932 25.456C98.7412 25.12 99.2692 24.604 99.6772 23.908C100.085 23.188 100.289 22.456 100.289 21.712C100.289 19.936 99.5572 19.048 98.0932 19.048C96.6052 19.048 95.8612 19.924 95.8612 21.676C95.8612 22.444 96.0652 23.188 96.4732 23.908C96.8812 24.604 97.4212 25.12 98.0932 25.456ZM115.77 11.56C114.954 11.56 114.294 11.32 113.79 10.84C113.31 10.336 113.07 9.676 113.07 8.86C113.07 8.044 113.31 7.396 113.79 6.916C114.294 6.436 114.954 6.196 115.77 6.196C116.562 6.196 117.198 6.436 117.678 6.916C118.158 7.396 118.398 8.044 118.398 8.86C118.398 9.676 118.158 10.336 117.678 10.84C117.198 11.32 116.562 11.56 115.77 11.56ZM124.014 25.96V31H120.018C118.338 31 116.946 30.592 115.842 29.776C114.69 30.592 113.286 31 111.63 31H107.598V25.96H111.126C111.894 25.96 112.434 25.804 112.746 25.492C113.058 25.18 113.214 24.64 113.214 23.872V17.572L118.434 14.8V23.872C118.434 24.64 118.59 25.18 118.902 25.492C119.214 25.804 119.754 25.96 120.522 25.96H124.014ZM122.118 31V25.96H125.646C126.414 25.96 126.954 25.804 127.266 25.492C127.578 25.18 127.734 24.64 127.734 23.872V17.572L132.954 14.8V24.088C132.954 26.32 132.258 28.072 130.866 29.344C129.642 30.448 128.07 31 126.15 31H122.118ZM128.814 39.46C127.998 39.46 127.338 39.208 126.834 38.704C126.354 38.224 126.114 37.576 126.114 36.76C126.114 35.944 126.354 35.296 126.834 34.816C127.338 34.336 127.998 34.096 128.814 34.096C129.606 34.096 130.242 34.336 130.722 34.816C131.202 35.296 131.442 35.944 131.442 36.76C131.442 37.576 131.202 38.224 130.722 38.704C130.242 39.208 129.606 39.46 128.814 39.46ZM147.183 29.92C146.655 29.992 146.079 30.028 145.455 30.028C143.199 30.028 141.399 29.188 140.055 27.508C138.927 26.14 138.363 24.484 138.363 22.54C138.363 19.876 139.095 17.764 140.559 16.204C141.879 14.836 143.607 14.152 145.743 14.152C147.927 14.152 149.643 14.848 150.891 16.24C151.947 17.464 152.475 19.036 152.475 20.956V28.588C152.475 31.732 151.611 34.132 149.883 35.788C148.539 37.06 146.835 37.732 144.771 37.804C144.675 37.804 144.579 37.804 144.483 37.804C142.851 37.804 141.279 37.36 139.767 36.472V31.9C141.183 32.716 142.551 33.124 143.871 33.124C144.087 33.124 144.279 33.112 144.447 33.088C146.031 32.92 146.943 31.864 147.183 29.92ZM147.255 25.132V20.812C147.255 19.636 146.751 19.048 145.743 19.048C144.255 19.048 143.511 20.152 143.511 22.36C143.511 24.52 144.267 25.6 145.779 25.6C146.451 25.6 146.943 25.444 147.255 25.132ZM201.698 11.56C200.882 11.56 200.222 11.32 199.718 10.84C199.238 10.336 198.998 9.676 198.998 8.86C198.998 8.044 199.238 7.396 199.718 6.916C200.222 6.436 200.882 6.196 201.698 6.196C202.49 6.196 203.126 6.436 203.606 6.916C204.086 7.396 204.326 8.044 204.326 8.86C204.326 9.676 204.086 10.336 203.606 10.84C203.126 11.32 202.49 11.56 201.698 11.56ZM212.822 25.96H216.35V31H212.318C210.686 31 209.294 30.592 208.142 29.776C206.99 30.592 205.586 31 203.93 31H188.126C187.55 31 186.938 30.94 186.29 30.82C185.786 33.076 184.586 34.84 182.69 36.112C180.986 37.264 178.946 37.84 176.57 37.84C173.258 37.84 170.702 36.676 168.902 34.348C167.486 32.548 166.778 30.424 166.778 27.976C166.778 26.152 167.198 24.532 168.038 23.116L173.006 22.072C172.118 23.656 171.674 25.336 171.674 27.112C171.674 28.816 172.118 30.184 173.006 31.216C173.918 32.272 175.106 32.8 176.57 32.8C179.738 32.8 181.322 31.372 181.322 28.516V19.264L186.542 16.492V23.872C186.542 25.168 187.082 25.864 188.162 25.96C189.338 22.552 191.042 19.78 193.274 17.644C195.698 15.316 198.47 14.152 201.59 14.152C204.494 14.152 206.81 15.16 208.538 17.176C210.002 18.856 210.734 20.932 210.734 23.404V24.088C210.734 25.336 211.43 25.96 212.822 25.96ZM203.75 25.96C204.47 25.96 204.938 25.828 205.154 25.564C205.394 25.3 205.514 24.724 205.514 23.836V23.404C205.514 22.108 205.154 21.064 204.434 20.272C203.714 19.456 202.778 19.048 201.626 19.048C199.97 19.048 198.398 19.672 196.91 20.92C195.446 22.144 194.27 23.824 193.382 25.96H203.75ZM227.327 25.96H230.819V31H226.823C225.143 31 223.751 30.592 222.647 29.776C221.495 30.592 220.091 31 218.435 31H214.403V25.96H217.931C218.699 25.96 219.239 25.804 219.551 25.492C219.863 25.18 220.019 24.64 220.019 23.872V17.572L225.239 14.8V23.872C225.239 24.64 225.383 25.18 225.671 25.492C225.983 25.804 226.535 25.96 227.327 25.96ZM217.571 34.096C218.363 34.096 218.999 34.336 219.479 34.816C219.983 35.32 220.235 35.968 220.235 36.76C220.235 37.576 219.983 38.224 219.479 38.704C218.999 39.208 218.363 39.46 217.571 39.46C216.755 39.46 216.095 39.208 215.591 38.704C215.111 38.2 214.871 37.552 214.871 36.76C214.871 35.968 215.111 35.32 215.591 34.816C216.095 34.336 216.755 34.096 217.571 34.096ZM223.583 34.096C224.375 34.096 225.011 34.336 225.491 34.816C225.971 35.296 226.211 35.944 226.211 36.76C226.211 37.576 225.971 38.224 225.491 38.704C225.011 39.208 224.375 39.46 223.583 39.46C222.767 39.46 222.107 39.208 221.603 38.704C221.123 38.2 220.883 37.552 220.883 36.76C220.883 35.968 221.123 35.32 221.603 34.816C222.107 34.336 222.767 34.096 223.583 34.096ZM228.923 31V25.96H232.451C233.219 25.96 233.759 25.804 234.071 25.492C234.383 25.18 234.539 24.64 234.539 23.872V17.572L239.759 14.8V24.088C239.759 26.32 239.063 28.072 237.671 29.344C236.447 30.448 234.875 31 232.955 31H228.923ZM235.619 39.46C234.803 39.46 234.143 39.208 233.639 38.704C233.159 38.224 232.919 37.576 232.919 36.76C232.919 35.944 233.159 35.296 233.639 34.816C234.143 34.336 234.803 34.096 235.619 34.096C236.411 34.096 237.047 34.336 237.527 34.816C238.007 35.296 238.247 35.944 238.247 36.76C238.247 37.576 238.007 38.224 237.527 38.704C237.047 39.208 236.411 39.46 235.619 39.46ZM244.628 7.204L245.888 4.828H247.04C246.776 4.324 246.644 3.808 246.644 3.28C246.644 2.416 246.944 1.708 247.544 1.156C248.12 0.627999 248.816 0.364 249.632 0.364C250.424 0.364 251.156 0.651999 251.828 1.228V3.532C251.204 2.98 250.592 2.704 249.992 2.704C249.608 2.704 249.308 2.812 249.092 3.028C248.9 3.22 248.804 3.448 248.804 3.712C248.804 4.072 248.972 4.444 249.308 4.828H252.98L251.72 7.204H244.628ZM246.248 31V11.992L251.468 9.22V31H246.248Z" fill="#921D62"/>
</g>
<defs>
<filter id="filter0_i_105_24" x="0.805145" y="0.364014" width="252.175" height="49.144" filterUnits="userSpaceOnUse" color-interpolation-filters="sRGB">
<feFlood flood-opacity="0" result="BackgroundImageFix"/>
<feBlend mode="normal" in="SourceGraphic" in2="BackgroundImageFix" result="shape"/>
<feColorMatrix in="SourceAlpha" type="matrix" values="0 0 0 0 0 0 0 0 0 0 0 0 0 0 0 0 0 0 127 0" result="hardAlpha"/>
<feOffset dy="4"/>
<feGaussianBlur stdDeviation="2"/>
<feComposite in2="hardAlpha" operator="arithmetic" k2="-1" k3="1"/>
<feColorMatrix type="matrix" values="0 0 0 0 0.0916667 0 0 0 0 0.0737153 0 0 0 0 0.0737153 0 0 0 0.9 0"/>
<feBlend mode="normal" in2="shape" result="effect1_innerShadow_105_24"/>
</filter>
</defs>
</svg>
