<svg width="301" height="3" viewBox="0 0 301 3" fill="none" xmlns="http://www.w3.org/2000/svg">
<path d="M2.20945e-06 1.08655C-0.000193266 1.22936 0.0125838 1.37082 0.0375983 1.50284C0.0626128 1.63486 0.0993711 1.75485 0.145759 1.85583C0.192146 1.95681 0.247247 2.03683 0.307892 2.09128C0.368537 2.14573 0.433529 2.17352 0.499129 2.17309H300.501C300.633 2.17309 300.76 2.05859 300.854 1.85482C300.947 1.65106 301 1.37472 301 1.08655C301 0.798379 300.947 0.522038 300.854 0.318272C300.76 0.114506 300.633 4.89506e-06 300.501 4.89506e-06H0.499129C0.433529 -0.000424219 0.368538 0.0273636 0.307894 0.0818147C0.24725 0.136266 0.192149 0.216289 0.145762 0.317269C0.0993752 0.418248 0.0626168 0.538235 0.0376017 0.670254C0.0125866 0.802273 -0.000191596 0.943738 2.20945e-06 1.08655V1.08655Z" fill="#CCCCCC"/>
</svg>
