<svg width="301" height="3" viewBox="0 0 301 3" fill="none" xmlns="http://www.w3.org/2000/svg">
<path d="M2.20945e-06 1.08667C-0.000193266 1.2295 0.0125838 1.37097 0.0375983 1.50301C0.0626128 1.63505 0.0993711 1.75504 0.145759 1.85604C0.192146 1.95703 0.247247 2.03706 0.307892 2.09152C0.368537 2.14597 0.433529 2.17377 0.499129 2.17333H300.501C300.633 2.17333 300.76 2.05882 300.854 1.85503C300.947 1.65124 301 1.37487 301 1.08667C301 0.798469 300.947 0.522096 300.854 0.318307C300.76 0.114519 300.633 4.89561e-06 300.501 4.89561e-06H0.499129C0.433529 -0.000424266 0.368538 0.0273666 0.307894 0.0818239C0.24725 0.136281 0.192149 0.216313 0.145762 0.317304C0.0993752 0.418295 0.0626168 0.538295 0.0376017 0.67033C0.0125866 0.802364 -0.000191596 0.943844 2.20945e-06 1.08667V1.08667Z" fill="#CCCCCC"/>
</svg>
